/* XPM */
static char *mtall[] = {
/* columns rows colors chars-per-pixel */
"16 16 2 1 ",
"  c #EBDBB2",
". c None",
/* pixels */
"                ",
"                ",
"                ",
"                ",
"                ",
"                ",
"                ",
"................",
"................",
"    ..    ..    ",
"    ..    ..    ",
"    ..    ..    ",
"    ..    ..    ",
"    ..    ..    ",
"    ..    ..    ",
"    ..    ..    "
};
